<svg width="132" height="182" xmlns="http://www.w3.org/2000/svg" xml:space="preserve" version="1.1">
	<g>
		<path fill="#FFFFFF" d="m130.5,58.55c0,-1.49999 -0.2,-15.60001 -8.3,-29.39999c-4.89998,-8.50002 -11.8,-15.2 -20.3,-20.00002c-10,-5.79999 -22.2,-8.59999 -36.09998,-8.59999c-13.8,0 -26,2.89999 -36.00001,8.59999c-8.39999,4.8 -15.2,11.70001 -20.2,20.00002c-7.9,13.69998 -8.1,27.29999 -8.1,28.8l0,65.69999c0,1.5 0.2,14.69998 8.3,28.19998c7.60001,12.60002 23.50001,27.60002 56.00001,27.60002c32.60001,0 48.5,-15.10002 56.3,-27.89999c8.09999,-13.40001 8.29999,-26.90001 8.29999,-28.40001l0,-38.59998l-15.00003,0l0,0l-58.79998,0l7.2,27.20001l36.59998,0l0,11.29999c0,0.60001 -0.40001,7.5 -4.50002,13.70001c-5.39999,8.29999 -15.39998,12.5 -29.99998,12.5c-14.3,0 -24.3,-4.10002 -29.7,-12.30003c-4,-6.29999 -4.4,-12.89998 -4.4,-13.49997l0,-65.39998c0,-0.60001 0.4,-7.79999 4.5,-14.39999c5.4,-8.60001 15.10001,-12.80003 29.60001,-12.80003c14.60001,0 24.29999,4.2 29.79999,12.80003c4.30002,7 4.5,15 4.5,15c0,-0.10001 0,-0.2 0,-0.2l30.3,0.10001l0,0l0.00003,-0.00002l0.00002,-0.00002l0,-0.00002z"/>
	</g>
</svg>