<svg width="601" height="181" xmlns="http://www.w3.org/2000/svg" xml:space="preserve" version="1.1">
	<g>
		<path fill="#01559f" d="m129,58c0,-1.5 -0.2,-15.60001 -8.3,-29.39999c-4.89999,-8.50002 -11.8,-15.20001 -20.3,-20.00002c-10,-5.79999 -22.2,-8.59999 -36.1,-8.59999c-13.8,0 -26,2.89999 -36,8.59999c-8.4,4.8 -15.2,11.70001 -20.2,20.00002c-7.9,13.69998 -8.1,27.29999 -8.1,28.79999l0,65.69998c0,1.5 0.2,14.70001 8.3,28.20001c7.6,12.60001 23.5,27.60001 56,27.60001c32.6,0 48.5,-15.10001 56.3,-27.89999c8.09999,-13.40002 8.29999,-26.90002 8.29999,-28.40002l0,-38.59998l-15,0l0,0l-58.8,0l7.2,27.20001l36.6,0l0,11.29999c0,0.60001 -0.4,7.5 -4.5,13.70001c-5.4,8.29999 -15.4,12.5 -30,12.5c-14.3,0 -24.3,-4.10001 -29.7,-12.30002c-4,-6.29999 -4.4,-12.89999 -4.4,-13.5l0,-65.39999c0,-0.60001 0.4,-7.79999 4.5,-14.39999c5.4,-8.60001 15.1,-12.80002 29.6,-12.80002c14.6,0 24.3,4.20001 29.8,12.80002c4.3,7 4.5,15 4.5,15c0,-0.10001 0,-0.20001 0,-0.20001l30.3,0.10001l0,0z" class="st0"/>
		<path fill="#01559f" d="m328.79999,58c0,-1.5 -0.20001,-15.60001 -8.29999,-29.39999c-4.90002,-8.50002 -11.80002,-15.20001 -20.30002,-20.00002c-10,-5.79999 -22.19998,-8.59999 -36,-8.59999c-13.79999,0 -26,2.89999 -35.89999,8.59999c-8.5,4.8 -15.2,11.60001 -20.2,20.00002c-8,13.69998 -8.2,27.19998 -8.2,28.69998l0,65.70001c0,1.5 0.2,14.70001 8.3,28.20001c7.59999,12.59998 23.5,27.59998 55.99998,27.59998c32.60001,0 48.5,-15.09998 56.30002,-27.89999c8.09998,-13.39999 8.29999,-26.89999 8.29999,-28.39999l0,-38.5l-15.10001,0l0,0l-58.79999,0l7.19998,27.20001l36.5,0l0,11.29999c0,0.60001 -0.39999,7.5 -4.5,13.70001c-5.39999,8.29999 -15.39999,12.5 -30,12.5c-14.29999,0 -24.29999,-4.10001 -29.69998,-12.30002c-4,-6.29999 -4.40001,-12.89999 -4.40001,-13.5l0,-65.39999c0,-0.60001 0.40001,-7.79999 4.5,-14.39999c5.40001,-8.60001 15.09999,-12.80002 29.59999,-12.80002c14.60001,0 24.30002,4.20001 29.80002,12.80002c4.29999,7 4.5,15 4.5,15c0,-0.10001 0,-0.20001 0,-0.20001l30.39999,0.10001l0,0z" class="st0"/>
		<rect fill="#01559f" height="172" width="30.2" class="st0" y="3.39999" x="149.2"/>
		<path fill="#01559f" d="m421.79999,3.39999l-26.5,78.5l-29.29999,-78.5l-32.20001,0l45.90002,123.10001c-2.60001,6.09998 -5.5,11.79999 -8.30002,15.39999c-3.10001,2.89999 -5.79999,3.19998 -18.5,3.10001c-1.69998,0 -3.29999,0 -5.10001,0l0,30.29999c1.70001,0 3.30002,0 4.90002,0c1.39999,0 2.69998,0 4.09998,0c12.80002,0 24.90002,-1 36.5,-12.5c0.40002,-0.39999 0.70001,-0.70001 1,-1.10001c11.80002,-14.39999 20.20001,-41.5 21.40002,-45.79999l37.79999,-112.5l-31.89999,0l0,-0.10001l0.19998,0l0,0.10001z" class="st0"/>
		<path fill="#01559f" d="m451.10001,175.39999l13.5,-36.79999l64.50003,0l13.5,36.79999l32.19995,0l-13.5,-36.79999l38.70001,0l-7.20001,-27.20001l-41.70001,0l-39.89996,-107.90001l-29.20001,0l-63.39999,172.00002l32.29999,0l0,-0.10001l0.20001,0zm45.80002,-124.30002l22.29999,60.29999l-44.5,0l22.20001,-60.29999z" class="st0"/>
	</g>
</svg>